<svg width="24" height="20" viewBox="0 0 24 20" fill="none" xmlns="http://www.w3.org/2000/svg">
<g clip-path="url(#clip0_3457_47)">
<path d="M0 0.979408C0.0168658 0.952505 0.0337316 0.930982 0.0393535 0.904078C0.230499 0.333726 0.669009 0.0162656 1.29304 0.00550421C1.63598 0.000123525 1.97892 0.00550421 2.32186 0.00550421C9.06254 0.00550421 15.8032 0.00550421 22.5495 0.00550421C22.7407 0.00550421 22.9431 0.0162656 23.1286 0.0700724C23.6683 0.220732 24.0056 0.68347 24.0056 1.26458C24.0056 3.04559 24.0056 4.8266 24.0056 6.60222C24.0056 9.57774 24.0056 12.5533 24.0056 15.5288C24.0056 16.3789 23.4996 16.8686 22.617 16.8686C20.1658 16.8686 17.7091 16.8686 15.2579 16.8686C15.168 16.8686 15.0724 16.8686 14.9599 16.8686C14.9599 17.3582 14.9599 17.8317 14.9599 18.3375C15.3479 18.3375 15.7358 18.3321 16.1237 18.3375C16.6971 18.3483 17.1188 18.5958 17.4111 19.0693C17.4505 19.1338 17.4786 19.2038 17.5011 19.2737C17.5798 19.5751 17.3999 19.8764 17.0963 19.9625C16.9951 19.9894 16.8826 20.0001 16.7702 20.0001C13.5994 20.0001 10.4287 20.0001 7.25228 20.0001C7.18482 20.0001 7.11174 20.0001 7.04427 19.9894C6.60014 19.9248 6.36964 19.5159 6.57203 19.1338C6.83064 18.6388 7.25791 18.3644 7.83696 18.3429C8.23612 18.3267 8.62966 18.3375 9.0513 18.3375C9.0513 17.8479 9.0513 17.3744 9.0513 16.8686C8.96697 16.8686 8.87702 16.8686 8.78707 16.8686C6.37526 16.8686 3.95784 16.8578 1.54603 16.8739C0.826423 16.8793 0.252987 16.6641 0.00562193 15.8785C0 10.9121 0 5.94578 0 0.979408ZM0.505973 13.0375C8.19115 13.0375 15.8313 13.0375 23.4996 13.0375C23.4996 12.946 23.4996 12.8653 23.4996 12.7846C23.4996 8.98048 23.4996 5.17096 23.4996 1.36682C23.4996 0.737277 23.2354 0.489766 22.572 0.489766C15.5278 0.489766 8.48349 0.495146 1.43359 0.484385C0.893886 0.484385 0.494729 0.7588 0.494729 1.38834C0.511595 5.17634 0.505973 8.96434 0.505973 12.7577C0.505973 12.8438 0.505973 12.9299 0.505973 13.0375ZM23.4884 13.5487C15.8145 13.5487 8.16866 13.5487 0.511595 13.5487C0.511595 14.3074 0.500351 15.0553 0.522839 15.8032C0.528461 15.9431 0.663387 16.0991 0.770204 16.2175C0.938862 16.4004 1.18623 16.3897 1.42235 16.3897C8.47224 16.3897 15.5165 16.3897 22.5664 16.3897C22.662 16.3897 22.7519 16.3897 22.8475 16.3789C23.1736 16.3466 23.4715 16.0884 23.4772 15.7817C23.4996 15.0391 23.4884 14.302 23.4884 13.5487ZM9.57414 18.3214C11.1989 18.3214 12.8067 18.3214 14.4146 18.3214C14.4146 17.8371 14.4146 17.3636 14.4146 16.8901C12.7899 16.8901 11.1876 16.8901 9.57414 16.8901C9.57414 17.3744 9.57414 17.8371 9.57414 18.3214ZM12.0141 19.5159C13.0372 19.5159 14.0604 19.5159 15.0836 19.5159C15.6514 19.5159 16.2249 19.5159 16.7927 19.5159C17.0232 19.5159 17.0625 19.4459 16.9445 19.263C16.7421 18.9617 16.4498 18.811 16.0787 18.811C13.3577 18.8056 10.6423 18.811 7.92129 18.811C7.5896 18.811 7.3085 18.9294 7.11174 19.1876C7.05552 19.263 7.03303 19.3598 6.9993 19.4459C7.08925 19.4674 7.18482 19.5105 7.27477 19.5105C8.85453 19.5159 10.4343 19.5159 12.0141 19.5159Z" fill="black"/>
<path d="M5.33521 1.92092C6.90935 1.93168 8.16304 3.15309 8.15741 4.66506C8.14617 6.13399 6.84751 7.35541 5.31272 7.33927C3.75545 7.32312 2.47927 6.08018 2.50176 4.60588C2.51862 3.12081 3.7948 1.91554 5.33521 1.92092ZM7.63458 4.87491C7.53338 4.87491 7.44905 4.87491 7.36472 4.87491C6.73507 4.87491 6.09979 4.87491 5.47013 4.87491C5.15531 4.87491 5.08222 4.80496 5.08222 4.50364C5.08222 3.89025 5.08222 3.27685 5.08222 2.66345C5.08222 2.58274 5.08222 2.50741 5.08222 2.42132C3.90162 2.51817 2.97962 3.52974 3.00211 4.67583C3.0246 5.83267 4.00843 6.80658 5.2059 6.855C6.43711 6.90881 7.51089 6.04252 7.63458 4.87491ZM5.58819 4.39065C5.94238 4.39065 6.27407 4.39065 6.60576 4.39065C6.9487 4.39065 7.28602 4.39065 7.62895 4.39065C7.55025 3.3737 6.58328 2.45898 5.58257 2.43208C5.5882 3.07238 5.58819 3.71806 5.58819 4.39065Z" fill="black"/>
<path d="M13.785 8.14637C13.785 7.18861 13.785 6.23085 13.785 5.27309C13.785 4.8534 13.9592 4.68659 14.3921 4.68121C14.6732 4.68121 14.9543 4.68121 15.2354 4.68121C15.6514 4.68659 15.8257 4.85878 15.8314 5.26233C15.837 5.56903 15.8314 5.87573 15.8314 6.18242C15.8314 7.76973 15.8314 9.35165 15.8314 10.9389C15.8314 11.4555 15.6739 11.6115 15.1399 11.6115C14.8925 11.6115 14.6395 11.6115 14.3921 11.6115C13.9761 11.6115 13.7906 11.434 13.785 11.0412C13.7793 10.078 13.785 9.10952 13.785 8.14637ZM14.2966 11.1165C14.6507 11.1165 14.9768 11.1165 15.3141 11.1165C15.3141 9.12566 15.3141 7.15095 15.3141 5.18162C14.9656 5.18162 14.6339 5.18162 14.2966 5.18162C14.2966 7.16171 14.2966 9.12566 14.2966 11.1165Z" fill="black"/>
<path d="M21.9986 8.65215C21.9986 9.44311 21.9986 10.2341 21.9986 11.025C21.9986 11.4393 21.8187 11.6061 21.3858 11.6061C21.0878 11.6061 20.7899 11.6115 20.4975 11.6061C20.1658 11.6008 19.9691 11.4178 19.9691 11.1004C19.9634 9.45925 19.9634 7.81276 19.9691 6.17166C19.9691 5.87034 20.1658 5.68739 20.4863 5.68201C20.8011 5.67663 21.1103 5.67663 21.4251 5.68201C21.8187 5.68201 22.0042 5.8542 22.0042 6.22546C21.9986 7.04333 21.9986 7.84505 21.9986 8.65215ZM20.4694 6.18242C20.4694 7.83429 20.4694 9.4754 20.4694 11.1111C20.818 11.1111 21.1497 11.1111 21.487 11.1111C21.487 9.46463 21.487 7.82891 21.487 6.18242C21.144 6.18242 20.818 6.18242 20.4694 6.18242Z" fill="black"/>
<path d="M17.9396 5.34836C18.2207 5.16004 18.4962 4.97709 18.766 4.78877C19.4125 4.35293 20.0534 3.9171 20.6999 3.48126C20.7449 3.44898 20.7899 3.41669 20.8349 3.39517C20.9698 3.31984 21.116 3.32522 21.1778 3.45974C21.2172 3.54583 21.1778 3.68035 21.1272 3.77182C21.0822 3.84715 20.9698 3.89019 20.8911 3.94938C19.986 4.56278 19.0808 5.17618 18.1757 5.78419C17.8946 5.97252 17.8328 5.96714 17.6135 5.71963C16.7309 4.71344 15.8426 3.70725 14.96 2.69568C14.8981 2.64188 14.8475 2.58269 14.7857 2.51812C14.7238 2.57731 14.6676 2.62573 14.6114 2.67416C13.74 3.48126 12.8686 4.28298 11.9972 5.09009C11.9466 5.13851 11.896 5.20846 11.8398 5.21384C11.7442 5.2246 11.6037 5.21922 11.5475 5.16542C11.4912 5.11161 11.5025 4.97709 11.5193 4.88562C11.5306 4.83181 11.6093 4.78339 11.6599 4.74034C12.6212 3.85253 13.5826 2.96472 14.5439 2.0769C14.7744 1.86706 14.8756 1.86706 15.078 2.10381C15.9607 3.10999 16.8489 4.11618 17.7316 5.12775C17.7934 5.19232 17.8609 5.26765 17.9396 5.34836Z" fill="black"/>
<path d="M10.6929 9.37855C10.6929 8.82434 10.6929 8.27013 10.6929 7.7213C10.6929 7.33927 10.8785 7.16171 11.2832 7.15095C11.5812 7.14557 11.8792 7.14557 12.1715 7.15095C12.5482 7.16171 12.7393 7.33927 12.7393 7.68902C12.7449 8.81896 12.7449 9.9489 12.7393 11.0735C12.7393 11.4232 12.5313 11.6062 12.1659 11.6062C11.8623 11.6115 11.5587 11.6115 11.2495 11.6062C10.8953 11.6008 10.6929 11.4124 10.6929 11.0788C10.6873 10.5139 10.6929 9.9489 10.6929 9.37855ZM11.2158 7.62983C11.2158 8.80282 11.2158 9.95966 11.2158 11.1111C11.5643 11.1111 11.896 11.1111 12.2165 11.1111C12.2165 9.94352 12.2165 8.78668 12.2165 7.62983C11.8792 7.62983 11.5587 7.62983 11.2158 7.62983Z" fill="black"/>
<path d="M16.8713 9.37312C16.8713 8.81352 16.8713 8.25393 16.8713 7.68896C16.8713 7.33922 17.0512 7.16165 17.411 7.15089C17.7315 7.14013 18.0519 7.14013 18.3724 7.15089C18.721 7.16165 18.9065 7.33384 18.9065 7.67282C18.9121 8.80814 18.9121 9.94347 18.9065 11.0788C18.9065 11.4232 18.7097 11.6061 18.3555 11.6061C18.0407 11.6115 17.7315 11.6115 17.4167 11.6061C17.0625 11.6007 16.8713 11.4124 16.8713 11.0734C16.8713 10.5084 16.8713 9.93809 16.8713 9.37312ZM17.3886 7.64054C17.3886 8.80814 17.3886 9.95961 17.3886 11.1111C17.7371 11.1111 18.0688 11.1111 18.4061 11.1111C18.4061 9.94885 18.4061 8.79738 18.4061 7.64054C18.0632 7.64054 17.7315 7.64054 17.3886 7.64054Z" fill="black"/>
<path d="M5.34647 11.6115C4.52005 11.6115 3.69363 11.6115 2.86158 11.6115C2.68168 11.6115 2.52427 11.5846 2.50178 11.3802C2.48491 11.2187 2.61984 11.1273 2.8672 11.1273C4.51443 11.1273 6.16165 11.1219 7.80888 11.1326C7.92131 11.1326 8.07311 11.2026 8.12933 11.2887C8.23614 11.4447 8.07311 11.6061 7.82574 11.6061C6.99932 11.6115 6.1729 11.6115 5.34647 11.6115Z" fill="black"/>
<path d="M5.32954 8.79204C4.50311 8.79204 3.67669 8.79204 2.85027 8.79204C2.69848 8.79204 2.56355 8.7759 2.51858 8.61448C2.47922 8.46382 2.55231 8.36158 2.7041 8.3293C2.78281 8.30778 2.87276 8.31316 2.95709 8.31316C4.54247 8.31316 6.12785 8.31316 7.70761 8.31316C7.76383 8.31316 7.81443 8.31316 7.87065 8.31316C8.02806 8.32392 8.15174 8.38311 8.15174 8.54991C8.15174 8.72747 8.02806 8.79204 7.8594 8.79204C7.01612 8.79204 6.17283 8.79204 5.32954 8.79204Z" fill="black"/>
<path d="M5.31829 9.72827C6.15034 9.72827 6.98801 9.72827 7.82005 9.72827C7.97184 9.72827 8.12926 9.75518 8.1405 9.9166C8.14612 10.0027 8.05055 10.1211 7.96622 10.1856C7.91562 10.2287 7.80319 10.2072 7.71323 10.2072C6.12223 10.2072 4.53122 10.2072 2.94022 10.2072C2.884 10.2072 2.8334 10.2072 2.77718 10.2072C2.61415 10.2018 2.50171 10.1264 2.50171 9.96502C2.50733 9.8036 2.61977 9.73365 2.78281 9.73365C3.46306 9.73365 4.13769 9.73365 4.81794 9.73365C4.99222 9.72827 5.15526 9.72827 5.31829 9.72827Z" fill="black"/>
<path d="M12.8461 14.9475C12.8517 15.3888 12.4806 15.7493 12.0196 15.7546C11.5474 15.7654 11.1595 15.4049 11.1595 14.9583C11.1539 14.5117 11.5362 14.1458 12.0084 14.1458C12.4638 14.1566 12.8404 14.5117 12.8461 14.9475ZM12.3345 14.9637C12.3345 14.7861 12.1883 14.6355 12.0028 14.6301C11.8173 14.6301 11.6655 14.7754 11.6598 14.9529C11.6598 15.1305 11.806 15.2811 11.9915 15.2865C12.1771 15.2865 12.3345 15.1412 12.3345 14.9637Z" fill="black"/>
</g>
<defs>
<clipPath id="clip0_3457_47">
<rect width="24" height="20" fill="white"/>
</clipPath>
</defs>
</svg>
